<svg width="18" height="18" viewBox="0 0 18 18" fill="none" xmlns="http://www.w3.org/2000/svg">
<path d="M10.0193 0.000664918C10.0194 0.00190815 10.0196 0.00436556 10.0198 0.00781279C10.0203 0.0147128 10.0212 0.0259208 10.0223 0.0412249C10.0246 0.071946 10.0283 0.119103 10.0338 0.180858C10.0447 0.304491 10.0626 0.486245 10.0901 0.711462C10.1453 1.16324 10.238 1.7833 10.3877 2.45787C10.7005 3.86814 11.214 5.28325 11.9654 6.03463C12.7167 6.78601 14.1319 7.29946 15.5421 7.61232C16.2167 7.76196 16.8368 7.85471 17.2885 7.90987C17.5138 7.93736 17.6955 7.95525 17.8191 7.96622C17.8809 7.9717 17.9281 7.9754 17.9588 7.97769C17.9741 7.97883 17.9853 7.97971 17.9922 7.98018C17.9956 7.98042 17.9981 7.9806 17.9993 7.98068H18C18 7.98068 18 7.98066 17.9997 7.98533V10.0138C18 10.0193 18 10.0193 18 10.0193H17.9993C17.9981 10.0194 17.9956 10.0196 17.9922 10.0198C17.9853 10.0203 17.9741 10.0212 17.9588 10.0223C17.9281 10.0246 17.8809 10.0283 17.8191 10.0338C17.6955 10.0447 17.5138 10.0626 17.2885 10.0901C16.8368 10.1453 16.2167 10.238 15.5421 10.3877C14.1319 10.7005 12.7167 11.214 11.9654 11.9654C11.214 12.7167 10.7005 14.1319 10.3877 15.5421C10.238 16.2167 10.1453 16.8368 10.0901 17.2885C10.0626 17.5138 10.0447 17.6955 10.0338 17.8191C10.0283 17.8809 10.0246 17.9281 10.0223 17.9588C10.0212 17.9741 10.0203 17.9853 10.0198 17.9922C10.0196 17.9956 10.0194 17.9981 10.0193 17.9993V18C10.0193 18 10.0193 18 10.014 17.9997H7.986C7.98066 18 7.98068 18 7.98068 18V17.9993C7.9806 17.9981 7.98042 17.9956 7.98018 17.9922C7.97971 17.9853 7.97883 17.9741 7.97769 17.9588C7.9754 17.9281 7.9717 17.8809 7.96622 17.8191C7.95525 17.6955 7.93736 17.5138 7.90987 17.2885C7.85471 16.8368 7.76196 16.2167 7.61232 15.5421C7.29946 14.1319 6.78601 12.7167 6.03463 11.9654C5.28325 11.214 3.86814 10.7005 2.45787 10.3877C1.7833 10.238 1.16324 10.1453 0.711462 10.0901C0.486245 10.0626 0.304491 10.0447 0.180858 10.0338C0.119103 10.0283 0.071946 10.0246 0.0412249 10.0223C0.0259208 10.0212 0.0147128 10.0203 0.00781279 10.0198C0.00436556 10.0196 0.00190815 10.0194 0.000664918 10.0193H0C2.72392e-05 10.0193 -3.58497e-05 10.0193 0.000332459 10.0138V7.98533C1.68357e-05 7.98066 2.57987e-05 7.98068 0 7.98068H0.000664918C0.00190815 7.9806 0.00436556 7.98042 0.00781279 7.98018C0.0147128 7.97971 0.0259208 7.97883 0.0412249 7.97769C0.071946 7.9754 0.119103 7.9717 0.180858 7.96622C0.304491 7.95525 0.486245 7.93736 0.711462 7.90987C1.16324 7.85471 1.7833 7.76196 2.45787 7.61232C3.86814 7.29946 5.28325 6.78601 6.03463 6.03463C6.78601 5.28325 7.29946 3.86814 7.61232 2.45787C7.76196 1.7833 7.85471 1.16324 7.90987 0.711462C7.93736 0.486245 7.95525 0.304491 7.96622 0.180858C7.9717 0.119103 7.9754 0.071946 7.97769 0.0412249C7.97883 0.0259208 7.97971 0.0147128 7.98018 0.00781279C7.98042 0.00436556 7.9806 0.00190815 7.98068 0.000664918V0C7.98068 2.69632e-05 7.98066 -2.5325e-05 7.986 0.000332459H10.014C10.0193 -2.5325e-05 10.0193 2.69632e-05 10.0193 0V0.000664918ZM9 4.96278C8.64498 5.88946 8.15623 6.80143 7.47883 7.47883C6.80143 8.15623 5.88946 8.64498 4.96278 9C5.88946 9.35502 6.80143 9.84377 7.47883 10.5212C8.1562 11.1985 8.64499 12.1104 9 13.0371C9.35501 12.1104 9.8438 11.1985 10.5212 10.5212C11.1985 9.8438 12.1104 9.35501 13.0371 9C12.1104 8.64499 11.1985 8.1562 10.5212 7.47883C9.84377 6.80143 9.35502 5.88946 9 4.96278Z" fill="#F0FF3D"/>
</svg>
